<?xml version="1.0" encoding="utf-8"?>
<!-- Generator: Adobe Illustrator 14.0.0, SVG Export Plug-In . SVG Version: 6.00 Build 43363)  -->
<!DOCTYPE svg PUBLIC "-//W3C//DTD SVG 1.1//EN" "http://www.w3.org/Graphics/SVG/1.1/DTD/svg11.dtd">
<svg version="1.1" id="Layer_1" xmlns="http://www.w3.org/2000/svg" xmlns:xlink="http://www.w3.org/1999/xlink" x="0px" y="0px"
	 width="24px" height="24px" viewBox="0 0 24 24" enable-background="new 0 0 24 24" xml:space="preserve">
<g>
	<defs>
		<rect id="SVGID_1_" width="24" height="24"/>
	</defs>
	<clipPath id="SVGID_2_">
		<use xlink:href="#SVGID_1_"  overflow="visible"/>
	</clipPath>
	<path clip-path="url(#SVGID_2_)" fill="#BBB" d="M23.284,11.527v-0.01c-0.181-1.179-0.699-2.305-1.583-3.131
		c-0.917-0.853-2.124-1.325-3.379-1.325c-2.226,0-4.154,1.47-4.754,3.593c-0.375-0.375-0.996-0.627-1.575-0.627
		c-0.58,0-1.198,0.252-1.574,0.627c-0.6-2.123-2.521-3.593-4.746-3.593c-1.25,0-2.446,0.472-3.363,1.324
		c-0.885,0.831-1.432,1.888-1.55,3.142H0v0.896h0.76c0.118,1.253,0.665,2.335,1.549,3.161c0.917,0.853,2.086,1.34,3.341,1.34
		c2.724,0,4.917-2.195,4.917-4.919V12c0-0.531,0.672-1.158,1.433-1.158c0.761,0,1.433,0.627,1.433,1.158v0.005
		c0,2.724,2.182,4.935,4.905,4.935c1.25,0,2.429-0.494,3.346-1.353c0.886-0.826,1.415-1.911,1.533-3.164H24v-0.896H23.284z
		 M8.776,12.423H6.09v2.687H5.194v-2.687H2.687v-0.896h2.507V9.02H6.09v2.507h2.686V12.423z M21.313,12.423h-6.091v-0.896h6.091
		V12.423z"/>
</g>
</svg>
